<?xml version="1.0" encoding="utf-8"?>
<!-- Generator: Adobe Illustrator 21.0.0, SVG Export Plug-In . SVG Version: 6.00 Build 0)  -->
<svg version="1.1" id="Layer_1" xmlns="http://www.w3.org/2000/svg" xmlns:xlink="http://www.w3.org/1999/xlink" x="0px" y="0px"
	 viewBox="0 0 64 64" style="enable-background:new 0 0 64 64;" xml:space="preserve">
<style type="text/css">
	.st0{fill:#039BE5;stroke:#0277BD;stroke-linecap:round;stroke-linejoin:round;stroke-miterlimit:10;}
	.st1{fill:#81D4FA;stroke:#0277BD;stroke-linecap:round;stroke-linejoin:round;stroke-miterlimit:10;}
	.st2{fill:#EC407A;stroke:#0277BD;stroke-linecap:round;stroke-linejoin:round;stroke-miterlimit:10;}
	.st3{fill:#FFA726;stroke:#0277BD;stroke-linecap:round;stroke-linejoin:round;stroke-miterlimit:10;}
	.st4{fill:#80CBC4;stroke:#0277BD;stroke-linecap:round;stroke-linejoin:round;stroke-miterlimit:10;}
	.st5{fill:none;stroke:#F48FB1;stroke-linecap:round;stroke-linejoin:round;stroke-miterlimit:10;}
	.st6{fill:none;stroke:#FFCC80;stroke-linecap:round;stroke-linejoin:round;stroke-miterlimit:10;}
	.st7{fill:none;stroke:#E0F2F1;stroke-linecap:round;stroke-linejoin:round;stroke-miterlimit:10;}
	.st8{fill:none;stroke:#26A69A;stroke-linecap:round;stroke-linejoin:round;stroke-miterlimit:10;}
	.st9{fill:none;stroke:#F57C00;stroke-linecap:round;stroke-linejoin:round;stroke-miterlimit:10;}
	.st10{fill:none;stroke:#D81B60;stroke-linecap:round;stroke-linejoin:round;stroke-miterlimit:10;}
	.st11{fill:#EEEEEE;stroke:#0277BD;stroke-linecap:round;stroke-linejoin:round;stroke-miterlimit:10;}
	.st12{fill:none;stroke:#BDBDBD;stroke-linecap:round;stroke-linejoin:round;stroke-miterlimit:10;}
	.st13{fill:none;stroke:#E1F5FE;stroke-linecap:round;stroke-linejoin:round;stroke-miterlimit:10;}
	.st14{fill:none;stroke:#FFFFFF;stroke-linecap:round;stroke-linejoin:round;stroke-miterlimit:10;}
	.st15{fill:none;stroke:#29B6F6;stroke-linecap:round;stroke-linejoin:round;stroke-miterlimit:10;}
	.st16{fill:none;stroke:#4FC3F7;stroke-linecap:round;stroke-linejoin:round;stroke-miterlimit:10;}
	.st17{fill:none;stroke:#0277BD;stroke-linecap:round;stroke-linejoin:round;stroke-miterlimit:10;}
</style>
<g id="Delivery_on_Bike">
	<g>
		<path class="st1" d="M48.9,32l-3.6-13.7h-3l3.9,15C47.1,32.7,48,32.3,48.9,32z"/>
	</g>
	<rect x="27.2" y="42.2" class="st1" width="15.1" height="3"/>
	<circle class="st0" cx="53.3" cy="45.2" r="9"/>
	<g>
		<path class="st1" d="M42.3,45.2h-3c0-7.7,6.3-14,14-14c3.4,0,6.6,1.2,9.1,3.4c0.4,0.4,0.5,1.1,0.1,1.5l-0.7,0.7
			c-0.4,0.4-0.9,0.4-1.3,0.1c-2-1.7-4.5-2.6-7.1-2.6C47.3,34.2,42.3,39.2,42.3,45.2z"/>
	</g>
	<circle class="st11" cx="53.3" cy="45.2" r="4"/>
	<circle class="st0" cx="14.2" cy="45.2" r="9"/>
	<path class="st17" d="M58.3,50.2c-1.3,1.3-3.1,2.1-4.9,2.1s-3.6-0.7-4.9-2.1"/>
	<path class="st17" d="M19.2,50.2c-1.3,1.3-3.1,2.1-4.9,2.1s-3.6-0.7-4.9-2.1"/>
	<path class="st15" d="M48.4,40.3c1.3-1.3,3.1-2.1,4.9-2.1s3.6,0.7,4.9,2.1"/>
	<circle class="st11" cx="14.2" cy="45.2" r="4"/>
	<path class="st1" d="M27.2,45.2h-25c-0.6,0-1-0.4-1-1v-3.5c0-5.5,4.5-10,10-10h16V45.2z"/>
	<path class="st13" d="M3.2,40.8c0-4.4,3.6-8,8-8h14"/>
	<path class="st1" d="M23.2,45.2h-18v-2.5c0-2.8,2.2-5,5-5h8c2.8,0,5,2.2,5,5V45.2z"/>
	<path class="st11" d="M26.2,24.8h-18c-1.7,0-3,1.3-3,3v0c0,1.7,1.3,3,3,3h18c1.7,0,3-1.3,3-3v0C29.2,26.1,27.9,24.8,26.2,24.8z"/>
	<g>
		<path class="st3" d="M19.2,24.8h-13c-0.6,0-1-0.4-1-1v-13c0-0.6,0.4-1,1-1h13c0.6,0,1,0.4,1,1v13C20.2,24.3,19.8,24.8,19.2,24.8z"
			/>
		<path class="st3" d="M5.5,10.1l3.7,4.7h7l3.7-4.7c-0.2-0.2-0.4-0.3-0.7-0.3h-13C5.9,9.8,5.7,9.9,5.5,10.1z"/>
		<line class="st9" x1="7.2" y1="22.8" x2="18.2" y2="22.8"/>
	</g>
	<g>
		<path class="st3" d="M19.2,24.8h-13c-0.6,0-1-0.4-1-1v-13c0-0.6,0.4-1,1-1h13c0.6,0,1,0.4,1,1v13C20.2,24.3,19.8,24.8,19.2,24.8z"
			/>
		<path class="st3" d="M5.5,10.1l3.7,4.7h7l3.7-4.7c-0.2-0.2-0.4-0.3-0.7-0.3h-13C5.9,9.8,5.7,9.9,5.5,10.1z"/>
		<line class="st9" x1="7.2" y1="22.8" x2="18.2" y2="22.8"/>
	</g>
	<path class="st0" d="M44.6,15.2h-7c-0.6,0-1,0.4-1,1v1c0,0.6,0.4,1,1,1h7c0.6,0,1-0.4,1-1v-1C45.6,15.7,45.2,15.2,44.6,15.2z"/>
	<line class="st15" x1="7.2" y1="43.2" x2="21.2" y2="43.2"/>
	<line class="st14" x1="8.2" y1="26.8" x2="26.2" y2="26.8"/>
	<path class="st3" d="M50.9,28.5h-1c-0.6,0-1-0.4-1-1v-6c0-0.6,0.4-1,1-1h1c0.6,0,1,0.4,1,1v6C51.9,28,51.4,28.5,50.9,28.5z"/>
	<polygon class="st1" points="46.5,23 47.3,26 48.9,26 48.9,23 	"/>
</g>
</svg>
